<svg width="416" height="126" viewBox="0 0 416 126" fill="none" xmlns="http://www.w3.org/2000/svg">
<path d="M21.984 18.842V11.12H12.052V18.842H21.984ZM20.19 17.178H13.846V12.81H20.19V17.178ZM16.186 3.086H20.45C20.424 3.918 20.372 4.776 20.294 5.946C20.216 7.22 19.826 7.636 18.604 7.636C17.824 7.636 17.018 7.61 16.29 7.584C16.394 8.182 16.472 8.78 16.576 9.274C17.512 9.3 18.318 9.274 19.228 9.274C21.23 9.196 21.932 8.468 22.062 6.206C22.166 4.672 22.244 2.826 22.296 1.422H11.428V3.086H14.418C14.288 5.868 13.482 7.116 10.908 8.598C11.35 9.066 11.74 9.508 12.104 9.95C15.016 8.13 16.004 6.544 16.186 3.086ZM7.658 20.48V16.138H10.622V14.474H7.658V10.522H10.7V8.832H6.982V5.27H10.284V3.554H6.982V0.2H5.11V3.554H1.47V5.27H5.11V8.832H0.664V10.522H5.864V19.44C4.928 18.634 4.252 17.464 3.732 15.878C3.836 14.812 3.888 13.616 3.888 12.264L2.146 12.186C2.12 17.022 1.678 19.44 0.326 22.3C0.69 22.638 1.288 23.236 1.73 23.626C2.51 21.962 3.056 20.428 3.394 18.556C4.824 21.65 6.93 22.768 11.48 22.872C15.068 22.898 20.112 22.898 22.998 22.898C23.128 22.352 23.31 21.65 23.492 21C22.01 21.052 15.458 21.104 11.662 21.078C10.05 21.052 8.724 20.896 7.658 20.48ZM44.604 17.698C46.268 15.54 47.438 13.07 48.322 10.106V8.182H44.474L46.684 3.606V1.63H34.88V3.528H36.856C36.83 4.386 36.804 5.66 36.778 6.96C36.596 13.07 35.92 16.424 33.866 19.908C33.866 19.336 33.866 18.686 33.84 18.036C31.188 18.504 28.692 18.946 26.456 19.284L26.794 21.286C29.212 20.818 31.396 20.376 33.84 19.934C33.476 20.558 33.06 21.208 32.592 21.858C33.086 22.352 33.606 22.872 34.074 23.366C36.778 19.492 38.052 16.034 38.494 11.302C39.326 13.72 40.418 15.8 41.978 17.672C40.496 19.206 38.65 20.532 36.258 21.832C36.544 22.222 37.142 23.132 37.454 23.626C39.846 22.274 41.77 20.818 43.33 19.18C44.708 20.584 46.372 21.91 48.374 23.236C48.764 22.56 49.128 21.962 49.544 21.338C47.594 20.194 45.982 19.024 44.604 17.698ZM43.226 16.216C41.146 13.72 39.768 10.704 38.728 6.752C38.728 6.232 38.754 5.686 38.754 5.192C38.754 4.542 38.754 3.97 38.754 3.528H44.682L42.42 8.182V10.08H46.294C45.514 12.498 44.552 14.474 43.226 16.216ZM31.89 7.584C30.954 7.636 29.498 7.688 28.796 7.714C30.096 5.842 31.708 3.008 32.826 0.953999L30.798 0.33C29.94 2.358 28.38 5.192 27.548 6.388C27.106 7.168 26.82 7.532 26.404 7.896L26.95 9.664C27.886 9.534 29.108 9.43 30.746 9.352C29.862 10.704 28.978 11.926 28.354 12.68C27.834 13.356 27.418 13.798 26.924 14.11L27.496 15.93C29.082 15.67 30.876 15.462 34.022 15.254C34.022 14.708 34.074 14.11 34.152 13.46C32.592 13.59 31.006 13.72 29.654 13.85C31.266 11.718 33.606 8.364 35.14 5.842L33.372 5.036C32.956 5.842 32.436 6.7 31.89 7.584ZM65.456 4.88C65.976 5.66 66.678 6.752 67.094 7.428L68.732 7.038C68.238 6.232 67.64 5.218 67.146 4.412L65.456 4.88ZM71.826 7.506C72.424 6.7 73.048 5.764 73.646 4.828L71.878 4.438C71.384 5.322 70.76 6.336 70.032 7.506H63.896V9.066H68.55V11.302H64.442V12.836H68.55V15.306H70.422V12.836H74.66V11.302H70.422V9.066H75.258V7.506H71.826ZM70.89 2.67C70.604 1.864 70.24 0.849999 69.902 0.0699983L67.952 0.381999C68.29 1.11 68.602 1.942 68.888 2.67H64.364V4.204H74.764V2.67H70.89ZM65.014 21.13V18.426H73.438V16.84H65.014V14.916H63.064V16.84H54.64V18.426H63.064V21.13H52.664V22.742H75.414V21.13H65.014ZM63.22 14.5V9.014H55.966V14.5H63.22ZM61.608 13.018H57.552V10.496H61.608V13.018ZM56.122 5.452V2.982H61.374V5.452H56.122ZM56.096 6.986H63.142V1.422H54.354V5.114C54.354 8.702 53.886 10.6 52.326 12.836C52.716 13.408 53.158 13.98 53.548 14.656C54.848 12.706 55.42 11.328 55.81 9.352C55.836 9.3 55.836 9.222 55.862 9.17C55.992 8.494 56.044 7.792 56.096 6.986ZM78.768 21.832C80.796 21.468 83.942 20.948 86.334 20.61C86.334 19.882 86.36 19.31 86.412 18.66C83.5 19.102 81.186 19.414 78.43 19.778L78.768 21.832ZM96.032 11.926H101.206V10.054H95.928C95.85 8.26 95.798 6.18 95.798 3.736C97.54 3.58 99.23 3.424 100.738 3.216L100.166 1.318C96.5 1.812 91.924 2.202 87.634 2.358V19.986C87.634 20.792 87.504 21.286 86.984 21.858L88.102 23.47C88.284 23.314 88.778 22.976 89.168 22.794C90.026 22.378 92.548 21.026 93.822 20.48C93.77 19.856 93.718 19.076 93.666 18.426C92.548 18.946 90.364 20.064 89.558 20.48V11.926H94.134C94.42 16.086 94.914 18.504 95.642 20.402C96.396 22.3 97.332 23.288 98.814 23.314C100.036 23.314 100.79 22.378 101.102 21C101.31 20.012 101.518 18.556 101.648 17.256C101.154 17.074 100.582 16.866 100.088 16.658C99.984 17.672 99.802 19.154 99.646 20.064C99.464 20.896 99.152 21.156 98.814 21.156C98.138 21.13 97.722 20.532 97.332 19.544C96.682 17.672 96.266 15.436 96.032 11.926ZM94.03 10.054H89.558V4.178C90.91 4.1 92.392 3.996 93.874 3.892C93.9 6.258 93.952 8.286 94.03 10.054ZM83.734 7.948C82.772 7.974 81.446 8.052 80.718 8.078C81.94 6.18 83.604 3.294 84.878 0.849999L82.954 0.2C82.07 2.332 80.38 5.504 79.314 7.168C79.028 7.688 78.82 7.948 78.404 8.26L78.898 10.028C79.808 9.872 80.926 9.768 82.668 9.716C81.758 11.172 80.822 12.55 80.042 13.59C79.756 14.084 79.418 14.396 78.95 14.734L79.47 16.424C80.692 16.216 82.98 15.956 86.048 15.696C86.048 15.228 86.074 14.682 86.152 13.928C84.722 14.084 83.084 14.24 81.576 14.37C83.292 11.952 85.502 8.702 86.828 6.232L85.19 5.374C84.774 6.154 84.28 7.038 83.734 7.948ZM107.732 24.016L108.096 24.77C109.864 24.224 110.93 22.638 110.93 20.662V18.244H108.044V21H109.37C109.448 22.17 108.928 23.444 107.732 24.016ZM139.868 3.372C140.648 2.462 141.558 1.344 142.182 0.537998L140.076 0.0439986C139.53 0.849999 138.36 2.254 137.398 3.372H133.16L133.576 3.242C132.926 2.41 131.678 0.849999 130.898 0.0179989L128.896 0.511999C129.65 1.396 130.56 2.566 131.21 3.372H124.996V5.036H134.434V7.298H126.244V8.962H134.434V11.224H124.372V12.888H146.602V11.224H136.514V8.962H144.834V7.298H136.514V5.036H146.03V3.372H139.868ZM136.8 17.1H146.342V15.462H136.384C136.462 14.838 136.54 14.292 136.566 13.72H134.486C134.434 14.37 134.382 14.864 134.304 15.462H124.684V17.1H133.914C132.978 19.388 130.248 20.792 124.06 21.78C124.372 22.378 124.71 23.158 124.944 23.73C131.366 22.378 134.304 20.688 135.526 18.504C137.294 21.208 140.622 22.612 145.952 23.47C146.264 22.742 146.55 22.118 146.836 21.468C141.038 20.766 138.256 19.492 136.8 17.1ZM161.214 4.386L163.346 3.866C162.592 2.54 161.89 1.318 161.162 0.0699983L159.082 0.511999C159.81 1.786 160.538 3.112 161.214 4.386ZM154.948 4.698L157.002 3.97C156.222 2.826 155.39 1.63 154.48 0.485999L152.452 1.11C153.258 2.228 154.142 3.528 154.948 4.698ZM167.428 5.062C168.442 3.762 169.534 2.28 170.392 1.058L168.26 0.381999C167.376 1.76 166.076 3.528 164.984 4.958L165.244 5.062H150.97V10.21H152.998V6.856H170.08V10.106H172.108V5.062H167.428ZM163.164 16.918H172.862V15.098H163.164V14.708L168.676 11.302V9.43H154.376V11.25H165.556L161.058 14.084V15.098H150.268V16.918H161.058V19.57C161.058 20.922 160.668 21.338 159.264 21.338C158.146 21.338 157.21 21.312 156.118 21.26C156.274 21.936 156.404 22.664 156.508 23.314H160.122C162.332 23.262 163.164 22.378 163.164 20.194V16.918ZM176.034 16.97H192.804V14.968H176.034V16.97ZM182.326 3.736L182.664 0.2H180.454L179.414 11.484H194.91C194.832 13.408 194.676 16.268 194.52 18.14C194.312 20.22 193.558 20.922 191.088 20.922C189.32 20.922 187.968 20.87 186.46 20.792C186.642 21.676 186.746 22.378 186.85 23.08C188.384 23.106 190.022 23.08 191.842 23.054C195.222 22.95 196.418 21.858 196.704 18.4C196.912 15.67 197.094 12.264 197.224 9.508H181.754L182.118 5.712H198.498V3.736H182.326ZM218.856 18.4C220.91 16.476 222.34 14.188 223.458 11.276V9.378H218.362V5.764H224.68V3.918H218.362V0.2H216.334V3.918H210.458V5.764H216.334V9.378H210.77V11.224H213.006L211.706 11.77C212.798 14.5 214.02 16.606 215.736 18.348C213.942 19.622 211.654 20.74 208.742 21.832C209.054 22.352 209.496 23.08 209.86 23.652C212.902 22.456 215.32 21.182 217.27 19.726C219.012 21.104 221.17 22.274 223.978 23.418C224.29 22.846 224.654 22.118 224.992 21.468C222.444 20.558 220.468 19.57 218.856 18.4ZM217.348 17.1C215.762 15.566 214.592 13.668 213.526 11.224H221.352C220.416 13.564 219.168 15.462 217.348 17.1ZM207.104 13.46C208.144 13.2 209.054 12.966 209.86 12.784C209.834 12.186 209.808 11.458 209.782 10.782C208.924 10.99 208.014 11.224 207.104 11.432V6.648H209.704V4.776H207.104V0.251999H205.128V4.776H202.242V6.648H205.128V11.874C203.958 12.134 202.84 12.368 201.93 12.55L202.112 14.76C203.178 14.474 204.192 14.214 205.128 13.98V19.882C205.128 20.922 204.868 21.286 203.932 21.286C203.152 21.286 202.606 21.286 202.268 21.26C202.372 21.806 202.476 22.586 202.554 23.262C203.282 23.288 203.958 23.262 204.686 23.21C206.402 23.106 207.104 22.352 207.104 20.428V13.46ZM246.728 5.556L248.08 4.178C246.884 3.112 245.48 1.916 244.18 0.875999L242.932 2.098C244.128 3.164 245.688 4.542 246.728 5.556ZM241.216 7.87H250.42V5.92H240.488V0.121999H238.486V5.92H228.658V7.87H237.706C235.47 12.68 232.896 15.592 227.982 18.868C228.294 19.518 228.71 20.246 229.074 20.922C233.832 17.516 236.224 14.734 238.486 10.08V23.6H240.488V10.028C242.802 14.656 245.22 17.334 249.978 20.532C250.264 19.908 250.628 19.154 251.018 18.4C246.182 15.462 243.686 12.758 241.216 7.87ZM269.946 16.19L271.662 15.02C270.362 13.252 269.218 11.692 267.892 10.028L266.332 11.068C267.606 12.81 268.828 14.552 269.946 16.19ZM269.062 4.152C269.504 2.982 269.92 1.786 270.284 0.615999L268.282 0.173998C267.398 3.242 266.072 6.388 264.616 8.936C265.214 9.274 265.838 9.612 266.358 9.924C267.034 8.754 267.658 7.454 268.282 6.076H274.028C273.976 9.612 273.872 15.384 273.742 18.166C273.69 20.272 272.936 21.052 270.986 21.052C269.764 21.052 268.464 21 267.32 20.948C267.476 21.546 267.606 22.274 267.71 23.054C269.036 23.08 270.492 23.08 271.662 23.028C274.626 22.924 275.692 21.624 275.77 18.504C275.926 14.604 276.03 9.352 276.134 4.152H269.062ZM262.146 21.182V23.08H264.096V4.204H259.806C260.196 3.034 260.612 1.708 260.95 0.537998L258.792 0.225999C258.532 1.292 258.142 2.774 257.726 4.204H255.074V23.236H257.05V21.182H262.146ZM262.146 19.31H257.05V13.616H262.146V19.31ZM262.146 11.744H257.05V6.076H262.146V11.744ZM283.414 9.898H299.69V8.078H283.414V9.898ZM295.114 14.994H302.498V13.122H280.528V14.994H286.898C286.716 18.712 285.416 20.168 280.294 21.728C280.632 22.326 281.126 23.132 281.438 23.652C287.236 21.728 288.77 19.648 289.004 14.994H293.008V19.726C293.008 21.962 293.97 22.924 296.154 22.924H298.988C301.172 22.924 302.16 22.222 302.498 20.558C302.628 19.7 302.784 18.66 302.914 17.646C302.42 17.49 301.692 17.256 300.99 16.996C300.912 17.958 300.782 18.764 300.678 19.518C300.522 20.662 299.95 21.104 298.52 21.104H296.96C295.634 21.104 295.114 20.662 295.114 19.258V14.994ZM293.19 2.982C292.826 1.994 292.384 0.823999 292.124 0.0959995L289.758 0.381999C290.07 1.136 290.486 2.15 290.824 2.982H281.152V7.766H283.206V4.802H299.846V7.714H301.874V2.982H293.19ZM321.868 3.372C322.648 2.462 323.558 1.344 324.182 0.537998L322.076 0.0439986C321.53 0.849999 320.36 2.254 319.398 3.372H315.16L315.576 3.242C314.926 2.41 313.678 0.849999 312.898 0.0179989L310.896 0.511999C311.65 1.396 312.56 2.566 313.21 3.372H306.996V5.036H316.434V7.298H308.244V8.962H316.434V11.224H306.372V12.888H328.602V11.224H318.514V8.962H326.834V7.298H318.514V5.036H328.03V3.372H321.868ZM318.8 17.1H328.342V15.462H318.384C318.462 14.838 318.54 14.292 318.566 13.72H316.486C316.434 14.37 316.382 14.864 316.304 15.462H306.684V17.1H315.914C314.978 19.388 312.248 20.792 306.06 21.78C306.372 22.378 306.71 23.158 306.944 23.73C313.366 22.378 316.304 20.688 317.526 18.504C319.294 21.208 322.622 22.612 327.952 23.47C328.264 22.742 328.55 22.118 328.836 21.468C323.038 20.766 320.256 19.492 318.8 17.1ZM332.242 22.014C334.79 21.546 337.39 21.104 340.224 20.636C340.224 20.038 340.224 19.336 340.276 18.686C337.572 19.128 334.192 19.648 331.93 19.986L332.242 22.014ZM351.638 22.04V23.574H353.64V13.85H341.654V23.574H343.63V22.04H351.638ZM351.638 20.22H343.63V15.67H351.638V20.22ZM348.596 9.17V5.478H354.914V3.684H348.596V0.173998H346.594V3.684H340.51V5.478H346.594V9.17H341.238V10.964H354.108V9.17H348.596ZM337.416 8.078C336.48 8.104 335.284 8.156 334.296 8.208C335.622 6.18 337.312 3.19 338.56 0.719999L336.61 0.121999C335.648 2.462 333.854 5.764 332.84 7.35C332.554 7.818 332.346 8.078 331.904 8.416L332.398 10.158C333.308 10.002 334.504 9.924 336.298 9.846C335.31 11.406 334.322 12.836 333.594 13.772C333.308 14.214 332.866 14.682 332.372 14.994L332.97 16.684C334.452 16.424 336.636 16.138 339.912 15.8C339.912 15.254 339.938 14.708 339.99 14.006C338.326 14.24 336.636 14.422 335.18 14.604C336.636 12.602 339.132 8.78 340.64 6.31L338.898 5.478C338.482 6.258 337.962 7.142 337.416 8.078ZM378.002 22.326V23.548H379.9V12.368H370.722V23.574H372.594V22.326H378.002ZM378.002 20.688H372.594V18.114H378.002V20.688ZM378.002 16.554H372.594V13.98H378.002V16.554ZM377.664 10.496V1.396H361.206V10.496H377.664ZM375.558 8.884H363.286V6.726H375.558V8.884ZM375.558 5.166H363.286V3.008H375.558V5.166ZM366.328 22.326V23.574H368.2V12.368H359.152V23.6H361.024V22.326H366.328ZM366.328 20.688H361.024V18.114H366.328V20.688ZM366.328 16.554H361.024V13.98H366.328V16.554ZM385.802 20.194C385.802 21.962 387.258 23.34 389 23.34C390.742 23.34 392.198 21.988 392.198 20.194C392.198 18.374 390.768 16.944 389 16.944C387.206 16.944 385.802 18.4 385.802 20.194ZM387.102 20.194C387.102 19.102 387.908 18.296 389 18.296C390.066 18.296 390.872 19.102 390.872 20.194C390.872 21.26 390.066 22.04 388.974 22.04C387.908 22.04 387.102 21.234 387.102 20.194ZM22.218 56.352L23.648 55.312C22.478 53.804 21.386 52.452 19.956 50.788L18.63 51.75C19.956 53.388 21.022 54.818 22.218 56.352ZM10.05 56.612C11.428 55 12.728 53.284 13.82 51.646L12.338 50.736C11.402 52.322 10.128 53.934 8.75 55.442C9.166 55.78 9.582 56.144 10.05 56.612ZM3.914 45.822L5.5 44.548C4.33 43.378 3.186 42.26 1.938 41.064L0.456 42.234C1.704 43.482 2.796 44.6 3.914 45.822ZM4.72 39.478L6.332 38.152C5.162 36.982 3.94 35.812 2.718 34.642L1.21 35.812C2.38 36.982 3.602 38.256 4.72 39.478ZM2.796 57.392C3.498 54.298 4.252 51.048 4.876 48.422L3.056 47.876C2.484 50.554 1.652 54.116 0.95 56.846L2.796 57.392ZM21.958 49.566V40.102H16.29C16.55 39.27 16.888 38.178 17.122 37.372H23.388V35.604H7.216V43.82C7.216 50.32 6.644 52.816 4.616 56.3C5.162 56.716 5.76 57.21 6.28 57.678C8.542 53.31 9.114 50.58 9.114 43.768V37.372H15.068C14.86 38.178 14.574 39.27 14.366 40.102H11.064V49.566H15.666V54.35C15.666 55.364 15.328 55.676 14.392 55.676C13.742 55.676 13.04 55.676 12.364 55.624C12.52 56.248 12.65 56.872 12.728 57.392C13.664 57.392 14.392 57.366 15.146 57.366C16.836 57.288 17.486 56.56 17.486 54.818V49.566H21.958ZM20.164 47.954H12.884V45.614H20.164V47.954ZM20.164 44.08H12.884V41.74H20.164V44.08ZM39.56 46.16H49.362V44.054H39.56V37.892H47.646V35.838H28.458V37.892H37.298V44.054H26.664V46.16H37.298V52.79C37.298 54.506 36.882 54.974 35.192 55C34.152 55 32.54 54.974 31.526 54.948C31.708 55.676 31.812 56.352 31.942 57.184C33.034 57.184 35.036 57.158 36.05 57.132C38.676 57.054 39.56 56.04 39.56 53.336V46.16ZM68.03 57.132C69.174 57.158 70.058 57.158 71.176 57.106C73.438 57.002 74.218 56.092 74.218 53.7V34.33H72.268V53.18C72.268 54.61 71.774 55.104 70.474 55.104C69.564 55.104 68.732 55.104 67.666 55.026C67.822 55.78 67.952 56.508 68.03 57.132ZM67.25 51.49H69.096V36.904H67.25V51.49ZM60.568 35.422C60.75 35.058 60.932 34.694 61.114 34.33L59.06 34.096C57.604 37.242 55.472 40.05 52.404 42.39C52.768 43.066 52.976 43.612 53.262 44.262C53.782 43.846 54.276 43.43 54.744 43.014V53.336C54.744 55.728 55.68 56.794 57.942 56.794H61.894C64 56.794 64.988 56.118 65.404 54.324C65.612 53.596 65.794 52.53 65.924 51.542C65.352 51.386 64.754 51.178 64.104 50.918C64 51.854 63.844 52.842 63.688 53.44C63.506 54.48 62.908 54.948 61.556 54.948H58.384C57.058 54.948 56.616 54.428 56.616 53.05V44.444H62.206C62.206 45.25 62.18 46.862 62.128 47.434C62.05 48.682 61.582 49.072 60.516 49.098C59.814 49.124 59.086 49.098 58.28 49.046C58.41 49.722 58.488 50.346 58.566 50.866C59.528 50.866 60.36 50.84 61.166 50.84C63.012 50.762 63.818 49.878 63.948 47.824C64.026 46.394 64.104 44.21 64.13 42.676H55.108C56.928 40.986 58.384 39.192 59.684 37.034C61.348 38.854 63.22 40.882 64.884 42.78L66.262 41.246C64.572 39.452 62.544 37.346 60.568 35.422ZM79.834 55.156C80.666 53.726 81.602 52.01 82.304 50.372L80.796 49.8C80.094 51.412 79.184 53.05 78.352 54.35L79.834 55.156ZM88.83 54.038L90.312 53.232C89.558 51.984 88.856 50.918 87.998 49.696L86.568 50.424C87.322 51.62 88.05 52.79 88.83 54.038ZM98.814 44.938H101.466V43.092H93.614V37.892C96.214 37.736 98.606 37.476 100.998 37.06L100.4 35.214C97.722 35.708 94.888 36.02 91.664 36.202V45.094C91.664 50.892 91.092 53.128 89.116 56.352C89.688 56.742 90.286 57.158 90.806 57.496C92.938 53.908 93.614 51.282 93.614 45.198V44.938H96.89V57.392H98.814V44.938ZM87.244 42.52C87.816 41.558 88.466 40.466 89.038 39.504L87.322 38.88C86.75 39.972 85.996 41.324 85.294 42.52H82.174L83.682 41.662C83.006 40.648 82.382 39.712 81.732 38.802L80.276 39.582C80.874 40.492 81.524 41.506 82.096 42.52H78.586V44.21H90.572V42.52H87.244ZM86.022 36.826C85.71 35.864 85.346 34.772 85.138 34.122L83.058 34.382C83.266 34.98 83.604 35.942 83.89 36.826H79.21V38.542H90V36.826H86.022ZM85.71 48.63H90.104V46.94H85.71V44.288H83.812V46.94H79.028V48.63H83.812V53.882C83.812 54.922 83.448 55.364 82.434 55.364C81.914 55.364 81.238 55.338 80.64 55.312C80.77 55.91 80.9 56.638 81.004 57.21C81.836 57.21 82.564 57.21 83.162 57.158C85.086 57.08 85.71 56.092 85.71 54.272V48.63ZM121.356 52.4C123.41 50.476 124.84 48.188 125.958 45.276V43.378H120.862V39.764H127.18V37.918H120.862V34.2H118.834V37.918H112.958V39.764H118.834V43.378H113.27V45.224H115.506L114.206 45.77C115.298 48.5 116.52 50.606 118.236 52.348C116.442 53.622 114.154 54.74 111.242 55.832C111.554 56.352 111.996 57.08 112.36 57.652C115.402 56.456 117.82 55.182 119.77 53.726C121.512 55.104 123.67 56.274 126.478 57.418C126.79 56.846 127.154 56.118 127.492 55.468C124.944 54.558 122.968 53.57 121.356 52.4ZM119.848 51.1C118.262 49.566 117.092 47.668 116.026 45.224H123.852C122.916 47.564 121.668 49.462 119.848 51.1ZM109.604 47.46C110.644 47.2 111.554 46.966 112.36 46.784C112.334 46.186 112.308 45.458 112.282 44.782C111.424 44.99 110.514 45.224 109.604 45.432V40.648H112.204V38.776H109.604V34.252H107.628V38.776H104.742V40.648H107.628V45.874C106.458 46.134 105.34 46.368 104.43 46.55L104.612 48.76C105.678 48.474 106.692 48.214 107.628 47.98V53.882C107.628 54.922 107.368 55.286 106.432 55.286C105.652 55.286 105.106 55.286 104.768 55.26C104.872 55.806 104.976 56.586 105.054 57.262C105.782 57.288 106.458 57.262 107.186 57.21C108.902 57.106 109.604 56.352 109.604 54.428V47.46ZM149.228 39.556L150.58 38.178C149.384 37.112 147.98 35.916 146.68 34.876L145.432 36.098C146.628 37.164 148.188 38.542 149.228 39.556ZM143.716 41.87H152.92V39.92H142.988V34.122H140.986V39.92H131.158V41.87H140.206C137.97 46.68 135.396 49.592 130.482 52.868C130.794 53.518 131.21 54.246 131.574 54.922C136.332 51.516 138.724 48.734 140.986 44.08V57.6H142.988V44.028C145.302 48.656 147.72 51.334 152.478 54.532C152.764 53.908 153.128 53.154 153.518 52.4C148.682 49.462 146.186 46.758 143.716 41.87ZM159.732 58.016L160.096 58.77C161.864 58.224 162.93 56.638 162.93 54.662V52.244H160.044V55H161.37C161.448 56.17 160.928 57.444 159.732 58.016ZM176.086 51.334C177.1 53.882 179.44 55.156 181.884 55.208C185.264 55.208 188.332 53.076 188.332 49.54C188.332 47.044 186.564 45.458 184.484 45.016C186.278 44.444 187.552 42.754 187.552 40.778C187.552 38.282 185.654 36.046 182.378 36.046C179.206 36.046 177.126 37.736 176.424 40.466L178.686 41.064C179.076 39.218 180.584 38.23 182.092 38.23C183.886 38.23 185.134 39.166 185.134 40.934C185.134 42.494 183.886 44.08 180.974 44.08H180.064V46.29H181.234C184.588 46.29 185.862 47.564 185.862 49.41C185.862 51.646 184.016 53.024 181.988 53.024C180.454 52.998 178.972 52.14 178.192 50.45L176.086 51.334ZM197.482 52.738H194.128V38.62H197.586C202.864 38.62 204.918 41.402 204.918 45.744C204.918 49.852 202.994 52.738 197.482 52.738ZM197.638 36.332H191.684V55H197.924C204.424 55 207.44 51.152 207.44 45.744C207.44 39.842 204.19 36.332 197.638 36.332ZM218.626 48.162L219.614 46.524C217.898 45.64 216.104 44.756 214.31 43.898L213.4 45.432C215.116 46.264 216.936 47.226 218.626 48.162ZM220.68 44.418L221.59 42.806C219.952 41.948 218.236 41.09 216.52 40.258L215.688 41.74C217.222 42.52 218.938 43.404 220.68 44.418ZM224.814 48.656C224.918 48.214 224.996 47.772 225.074 47.278C225.438 45.276 225.62 42.884 225.646 40.284H223.514C223.514 43.196 223.358 45.042 222.942 47.174C222.838 47.694 222.734 48.188 222.604 48.656H210.8V50.502H221.876C220.472 52.946 217.638 54.35 210.93 55.624C211.294 56.326 211.658 57.054 211.944 57.652C217.56 56.482 220.81 55.156 222.708 52.998C225.672 54.35 228.714 55.858 231.86 57.418L232.874 55.598C230.352 54.376 226.426 52.634 223.774 51.464C223.956 51.152 224.112 50.84 224.242 50.502H233.212V48.656H224.814ZM223.826 37.06C223.384 35.968 222.968 34.928 222.552 34.07L220.238 34.408C220.602 35.162 221.018 36.072 221.434 37.06H211.346V42.052H213.4V38.88H230.508V42.026H232.562V37.06H223.826ZM250.502 49.982L252.244 48.916C251.126 47.122 250.034 45.354 248.89 43.56L247.304 44.496C248.422 46.316 249.436 48.032 250.502 49.982ZM256.612 41.09H259.498V39.192H256.612V34.304H254.61V39.192H246.628V41.09H254.61V52.79C254.61 54.506 254.038 55.078 252.4 55.078C251.282 55.078 249.904 55.052 248.942 55C249.124 55.832 249.228 56.404 249.384 57.106C250.684 57.132 251.984 57.106 253.154 57.106C255.702 57.028 256.612 55.936 256.612 53.336V41.09ZM243.586 53.934V55.91H245.536V36.176H237.58V56.17H239.53V53.934H243.586ZM243.586 52.114H239.53V45.952H243.586V52.114ZM243.586 44.158H239.53V37.996H243.586V44.158ZM265.036 57.366C265.79 54.376 266.7 51.126 267.48 48.292C266.882 48.11 266.102 47.902 265.504 47.668C264.724 50.814 263.866 53.986 263.034 56.846L265.036 57.366ZM266.336 45.666L267.662 44.106C266.362 43.014 264.984 41.922 263.684 40.882L262.358 42.312C263.788 43.43 265.01 44.496 266.336 45.666ZM266.882 39.348L268.26 37.788C266.986 36.644 265.868 35.708 264.542 34.642L263.19 36.072C264.438 37.138 265.582 38.126 266.882 39.348ZM267.818 56.612H285.446V54.974H267.818V56.612ZM282.95 40.596H284.614V36.592H278.01C277.776 35.734 277.516 34.876 277.308 34.096L275.046 34.304C275.28 35.006 275.488 35.786 275.722 36.592H268.962V40.57H270.6V41.896H282.95V40.596ZM282.664 40.414H270.886V38.178H282.664V40.414ZM283.34 52.79V43.846H270.106V52.79H283.34ZM281.364 51.282H272.082V49.02H281.364V51.282ZM281.364 47.642H272.082V45.354H281.364V47.642ZM290.152 46.628C291.66 45.666 293.584 44.47 295.82 43.118C295.586 42.624 295.274 41.974 295.04 41.376C292.96 42.676 291.14 43.794 289.164 44.86L290.152 46.628ZM292.804 41.636L293.766 39.946C292.414 39.27 291.088 38.646 289.71 38.022L288.8 39.608C290.178 40.258 291.348 40.856 292.804 41.636ZM294.598 38.074L295.612 36.358C294.078 35.578 292.778 34.954 291.374 34.33L290.412 35.864C291.816 36.566 293.09 37.216 294.598 38.074ZM302.502 49.93H311.264V48.136H300.968V45.64H298.966V48.136H288.826V49.93H297.406C295.144 52.062 292.596 53.544 288.488 55.026C288.852 55.65 289.216 56.3 289.528 56.846C293.87 55.026 296.548 53.232 298.966 50.606V57.626H300.968V50.58C303.152 53.154 305.778 54.844 310.458 56.586C310.796 55.936 311.082 55.416 311.472 54.714C307.156 53.362 304.712 52.036 302.502 49.93ZM301.956 37.008C302.008 36.02 302.06 34.954 302.086 34.148H300.136C300.136 34.954 300.084 36.02 300.032 37.008H296.418V38.802H299.876C299.486 41.506 298.29 43.118 295.118 44.886C295.612 45.406 295.976 45.9 296.418 46.446C299.928 44.236 301.306 42.286 301.8 38.802H305.076V43.378C305.076 44.912 305.778 45.718 307.364 45.718H308.638C310.224 45.718 311.004 44.964 311.238 43.43C311.342 42.702 311.446 41.636 311.524 40.726C311.108 40.622 310.198 40.31 309.678 40.128C309.652 41.012 309.574 42.13 309.496 42.78C309.418 43.56 309.054 43.846 308.378 43.846H307.936C307.312 43.846 307 43.586 307 42.91V37.008H301.956ZM315.658 46.654C317.036 45.172 318.518 43.326 319.766 41.558L318.31 40.622C317.14 42.312 315.866 43.898 314.436 45.354L315.658 46.654ZM335.652 40.336H337.342V38.464H330.14C330.608 37.19 330.998 35.838 331.336 34.434L329.412 34.148C328.58 37.814 327.384 40.934 325.746 43.612C325.928 43.898 326.188 44.288 326.422 44.704C325.33 43.404 324.108 42.078 322.73 40.544L321.43 41.584C322.756 43.066 324.16 44.704 325.2 46.004L326.474 44.756C326.604 44.99 326.708 45.198 326.812 45.406C327.15 44.86 327.488 44.314 327.8 43.742C328.32 46.602 329.074 48.89 330.27 50.918C328.918 52.686 327.124 54.298 324.654 56.066C325.122 56.612 325.59 57.21 326.006 57.704C328.32 56.014 330.088 54.428 331.44 52.686C332.688 54.324 334.3 55.858 336.38 57.47C336.822 56.768 337.238 56.118 337.576 55.598C335.444 54.116 333.832 52.66 332.584 50.996C334.274 48.214 335.132 44.912 335.652 40.336ZM333.754 40.336C333.364 44.028 332.714 46.784 331.414 49.15C330.27 46.992 329.594 44.444 329.126 41.038C329.23 40.804 329.334 40.57 329.438 40.336H333.754ZM322.262 37.814L322.366 37.788C321.95 36.592 321.352 35.214 320.962 34.122L318.908 34.486C319.35 35.578 319.87 36.826 320.234 37.814H314.956V39.634H326.344V37.814H322.262ZM322.236 50.658C323.068 49.358 323.77 47.902 324.472 46.238L322.73 45.406C322.158 46.862 321.56 48.11 320.884 49.254C319.844 48.162 318.804 47.096 317.79 46.108L316.438 47.356C317.452 48.422 318.596 49.618 319.766 50.892C318.44 52.66 316.75 54.142 314.332 55.728C314.696 56.352 315.112 57.106 315.372 57.574C317.842 55.806 319.636 54.168 321.092 52.322C322.184 53.492 323.25 54.714 324.29 55.858L325.694 54.324C324.654 53.206 323.458 51.932 322.236 50.658ZM360.924 45.77V35.422H343.036V45.77H350.992V48.162H340.748V49.956H349.77C347.586 52.088 344.908 53.622 340.462 55.104C340.826 55.754 341.19 56.378 341.45 56.924C346.13 55.078 348.73 53.466 350.992 50.918V57.548H352.968V50.944C355.178 53.388 357.908 55.104 362.51 56.586C362.796 56.014 363.134 55.416 363.498 54.688C359.104 53.57 356.504 52.166 354.19 49.956H363.238V48.162H352.968V45.77H360.924ZM358.974 44.054H352.968V41.402H358.974V44.054ZM358.974 39.764H352.968V37.138H358.974V39.764ZM350.992 44.054H344.986V41.402H350.992V44.054ZM350.992 39.764H344.986V37.138H350.992V39.764ZM367.71 42.208C369.998 40.128 372.052 37.736 373.716 35.292L372.052 34.174C370.596 36.436 368.646 38.698 366.826 40.232C367.112 40.83 367.424 41.48 367.71 42.208ZM378.396 55.52L379.878 54.246C378.838 53.258 377.928 52.4 376.706 51.386L375.38 52.504C376.524 53.596 377.486 54.584 378.396 55.52ZM387.782 44.054V35.292H375.198V44.054H387.782ZM386.326 51.23H389.472V49.592H386.326V47.564H388.978V45.9H374.132V47.564H384.376V49.592H373.352V51.23H384.376V53.674C384.376 55.104 383.986 55.494 382.504 55.494C381.646 55.494 380.58 55.468 379.54 55.416C379.67 55.962 379.852 56.716 379.93 57.314C381.022 57.314 382.27 57.288 383.284 57.262C385.572 57.21 386.326 56.274 386.326 53.96V51.23ZM385.91 42.442H377.07V40.388H385.91V42.442ZM385.91 38.932H377.07V36.904H385.91V38.932ZM371.48 44.938C372.234 43.846 372.936 42.754 373.534 41.662L372 40.57C370.492 43.404 368.438 46.108 366.41 48.188C366.644 48.838 366.826 49.54 367.034 50.242C367.84 49.462 368.672 48.552 369.478 47.59V57.574H371.48V44.938ZM403.486 41.688L405.41 40.622C404.37 38.724 402.992 36.254 401.796 34.33L400.028 35.266C401.146 37.216 402.472 39.712 403.486 41.688ZM394.906 56.118C395.374 55.572 395.868 55.156 396.284 54.818C398.182 53.466 401.406 51.178 402.94 50.086C402.784 49.436 402.628 48.526 402.498 47.668C400.99 48.864 397.896 51.022 396.388 52.062V35.266H394.256V52.062C394.256 52.998 394.1 53.518 393.398 54.272L394.906 56.118ZM410.48 49.28C411.416 47.148 411.832 44.626 412.014 41.376C412.118 39.14 412.196 37.268 412.222 34.876L410.064 34.85C410.038 37.086 410.012 39.504 409.908 41.324C409.492 48.812 407.724 51.828 400.34 55.78C400.834 56.404 401.354 57.132 401.692 57.652C405.41 55.546 407.854 53.622 409.414 51.256C410.818 52.998 412.456 55.078 413.834 56.95L415.576 55.286C414.146 53.57 412.118 51.152 410.48 49.28ZM13.118 76.754H22.946V74.674H12.936C13.066 72.854 13.17 70.228 13.196 68.278H10.986C10.986 70.072 10.934 72.464 10.856 74.674H1.08V76.754H10.726C10.102 82.37 7.476 86.036 0.664 89.598C1.08 90.222 1.652 90.95 2.068 91.522C7.97 88.22 10.778 84.996 12.052 80.264C13.43 85.178 16.524 88.48 21.932 91.262C22.296 90.716 22.842 89.936 23.388 89.208C17.122 86.4 14.132 82.786 13.118 76.754ZM35.998 71.034H49.258V69.448H35.998V71.034ZM47.048 90.248V91.626H48.764V80.212H36.44V91.626H38.13V90.248H47.048ZM47.048 88.688H43.382V85.906H47.048V88.688ZM47.048 84.398H43.382V81.746H47.048V84.398ZM47.802 78.444V72.75H37.454V78.444H47.802ZM46.034 76.936H39.196V74.284H46.034V76.936ZM41.77 88.688H38.13V85.906H41.77V88.688ZM41.77 84.398H38.13V81.746H41.77V84.398ZM32.072 73.894H33.736V83.852C33.736 84.554 33.632 84.71 33.06 84.71H32.332C32.436 85.386 32.566 85.958 32.67 86.478C33.086 86.478 33.424 86.452 33.71 86.4C34.646 86.27 35.244 85.75 35.244 84.502V72.152H32.072V68.226H30.382V72.152H27.314V86.556H28.822V73.894H30.382V91.574H32.072V73.894ZM73.49 78.184V69.318H61.374V78.184H73.49ZM71.618 76.624H63.22V74.492H71.618V76.624ZM71.618 72.984H63.22V70.878H71.618V72.984ZM68.576 89.13V86.036H74.426V84.45H68.576V81.798H75.31V80.186H59.606C59.58 79.64 59.58 79.068 59.554 78.496C58.8 78.756 58.046 79.016 57.344 79.276V75.038H59.658V73.114H57.344V68.278H55.446V73.114H52.768V75.038H55.446V79.952C54.406 80.29 53.418 80.628 52.404 80.94L52.69 83.072C53.626 82.708 54.536 82.37 55.446 82.032V87.96C55.446 89 55.03 89.364 54.224 89.364C53.6 89.364 53.21 89.338 52.794 89.338C52.898 89.936 52.976 90.638 53.054 91.34C53.678 91.34 54.25 91.34 54.952 91.262C56.616 91.132 57.344 90.248 57.344 88.35V81.33C58.098 81.044 58.852 80.784 59.58 80.55V81.798H66.678V88.948C64.936 88.558 63.844 87.466 62.908 85.178C63.038 84.502 63.142 83.774 63.246 82.968L61.426 82.76C61.114 86.322 60.256 88.298 58.072 90.534C58.566 90.898 59.086 91.288 59.606 91.652C60.932 90.222 61.764 88.948 62.31 87.388C63.532 89.806 65.196 90.69 68.134 90.768C70.318 90.82 72.866 90.846 75.18 90.846C75.31 90.274 75.414 89.754 75.57 89.13C73.178 89.156 70.344 89.156 68.576 89.13ZM96.396 80.498H101.414V78.496H96.396V68.382H94.238V78.496H86.594V72.23C88.466 72.048 90.312 71.84 91.976 71.632L91.534 69.656C87.894 70.176 82.954 70.592 79.236 70.8C79.366 71.424 79.47 72.204 79.548 72.828C81.134 72.724 82.798 72.594 84.462 72.438V78.496H78.612V80.498H84.436C84.384 82.682 84.098 84.294 83.422 85.646C82.59 87.284 81.186 88.584 78.924 90.118C79.392 90.612 80.094 91.314 80.51 91.756C85.216 88.376 86.438 85.854 86.594 80.498H94.238V91.47H96.396V80.498ZM106.302 88.194C106.302 89.962 107.758 91.34 109.5 91.34C111.242 91.34 112.698 89.988 112.698 88.194C112.698 86.374 111.268 84.944 109.5 84.944C107.706 84.944 106.302 86.4 106.302 88.194ZM107.602 88.194C107.602 87.102 108.408 86.296 109.5 86.296C110.566 86.296 111.372 87.102 111.372 88.194C111.372 89.26 110.566 90.04 109.474 90.04C108.408 90.04 107.602 89.234 107.602 88.194ZM143.456 76.156H146.836V74.154H143.456V68.356H141.402V74.154H135.656V68.382H133.602V74.154H129.156V69.396H127.102V74.154H124.164V76.156H127.102V90.508H146.394V88.558H129.156V76.156H133.602V84.502H143.456V76.156ZM141.402 82.578H135.656V76.156H141.402V82.578ZM170.678 79.796V69.344H152.348V79.796H159.134C156.846 81.72 153.908 83.254 149.956 84.476C150.242 85.1 150.528 85.724 150.762 86.27C152.79 85.568 154.636 84.788 156.3 83.852C156.3 84.58 156.248 85.36 156.144 85.958C155.832 87.83 154.948 89.052 152.192 90.56C152.764 90.976 153.362 91.392 153.882 91.756C156.716 90.144 157.834 88.532 158.172 86.01C158.276 85.282 158.328 84.554 158.328 83.8H156.378C158.328 82.708 160.07 81.46 161.552 80.03C163.034 81.512 164.698 82.76 166.7 83.8H164.724V91.496H166.726V83.826C168.338 84.658 170.158 85.386 172.238 86.01C172.472 85.412 172.732 84.788 172.992 84.138C169.222 83.202 166.18 81.772 163.814 79.796H170.678ZM168.676 78.132H162.462V75.35H168.676V78.132ZM168.676 73.764H162.462V71.008H168.676V73.764ZM160.538 78.132H154.35V75.35H160.538V78.132ZM160.538 73.764H154.35V71.008H160.538V73.764ZM194.572 90.014V91.574H196.704V71.346H186.876C187.266 70.306 187.578 69.214 187.838 68.304L185.446 68.122C185.264 69.032 184.926 70.202 184.588 71.346H178.296V91.6H180.402V90.014H194.572ZM194.572 88.142H180.402V84.294H194.572V88.142ZM194.572 82.5H180.402V78.756H194.572V82.5ZM194.572 76.962H180.402V73.218H194.572V76.962ZM216.464 90.924L218.466 90.404C217.816 88.922 217.14 87.388 216.464 85.958L214.566 86.348C215.268 87.882 215.944 89.468 216.464 90.924ZM222.21 73.218L223.718 72.464C222.964 71.528 222.158 70.332 221.274 69.24L219.792 69.994C220.598 71.034 221.482 72.256 222.21 73.218ZM210.614 91.106L212.616 90.742C212.096 89.234 211.472 87.596 210.9 86.088L209.002 86.4C209.6 88.038 210.198 89.728 210.614 91.106ZM204.452 91.548C205.336 89.988 206.324 87.96 207.052 86.296L205.18 85.724C204.4 87.44 203.386 89.442 202.554 90.872C203.022 91.054 203.906 91.366 204.452 91.548ZM222.756 91.132L224.68 90.404C223.822 88.766 222.912 87.18 221.924 85.464L220.13 86.088C221.092 87.882 221.976 89.52 222.756 91.132ZM219.064 76H224.55V74.232H218.648C218.752 72.204 218.804 69.968 218.83 68.2H216.932C216.906 70.176 216.88 72.724 216.75 74.05C216.75 74.102 216.75 74.18 216.724 74.232H213.708V76H216.516C215.97 79.25 214.618 81.226 210.77 83.722C211.16 84.164 211.654 84.788 212.07 85.308C215.372 83.098 217.114 80.966 217.998 78.158C218.934 81.096 220.624 83.046 223.822 84.944C224.186 84.424 224.68 83.774 225.07 83.254C221.69 81.46 220.052 79.38 219.064 76ZM210.588 76.13C209.626 75.48 208.612 74.83 207.702 74.31L206.714 75.532C207.754 76.182 208.846 76.962 209.782 77.664C209.444 78.262 209.028 78.834 208.586 79.38C207.572 78.652 206.428 77.846 205.596 77.3L204.478 78.574C205.362 79.224 206.454 80.03 207.364 80.732C206.064 82.006 204.452 83.176 202.424 84.346C202.814 84.762 203.36 85.386 203.802 85.88C209.392 82.318 212.018 78.834 213.63 72.854V70.956H208.092C208.456 70.124 208.82 69.292 209.158 68.408L207.286 68.07C206.09 71.45 204.426 74.284 202.112 76.78C202.372 77.378 202.684 78.158 202.866 78.704C204.608 76.832 206.038 74.856 207.208 72.698H211.784C211.472 73.946 211.082 75.064 210.588 76.13ZM231.882 74.024L233.65 73.062C232.662 71.554 231.752 70.202 230.66 68.59L229.048 69.474C229.984 70.956 230.868 72.308 231.882 74.024ZM235.938 84.632H237.81V80.94H247.274V84.606H249.146V79.51H235.938V84.632ZM249.38 74.804V69.942H243.53V68.174H241.606V69.942H235.73V74.804H241.606V76.468H234.248V77.898H250.81V76.468H243.53V74.804H249.38ZM247.586 73.374H243.53V71.372H247.586V73.374ZM243.244 83.826C243.478 83.15 243.556 82.5 243.608 81.694H241.736C241.71 82.578 241.606 83.176 241.294 83.774C240.67 85.1 239.032 85.932 234.508 86.634C234.846 87.258 235.08 87.804 235.314 88.298C239.474 87.492 241.528 86.608 242.568 85.178C245.09 86.322 246.962 87.232 249.328 88.35L250.238 86.842C247.82 85.724 245.844 84.892 243.244 83.826ZM241.606 73.374H237.55V71.372H241.606V73.374ZM232.636 86.348V76.624H228.138V78.548H230.686V86.296C229.854 87.154 228.996 88.09 227.904 89.26L228.84 91.34C229.724 90.196 230.738 88.974 231.7 87.908C233.026 89.988 234.95 90.872 237.888 90.898C241.346 90.976 245.662 90.976 250.524 90.976C250.68 90.352 250.862 89.702 251.044 89.078C246.598 89.156 241.32 89.208 238.278 89.13C235.574 89.104 233.858 88.35 232.636 86.348ZM262.12 77.976L263.888 76.884C262.978 75.636 262.068 74.492 261.132 73.322L259.442 74.362C260.326 75.48 261.262 76.754 262.12 77.976ZM269.842 78.054C270.778 76.78 271.714 75.428 272.416 74.362L270.466 73.426C269.478 75.116 268.49 76.702 267.606 78.054H256.478V81.85C256.478 85.672 255.932 87.726 253.904 90.352C254.476 90.768 255.126 91.236 255.672 91.678C257.96 88.454 258.532 86.114 258.532 81.954V79.952H276.29V78.054H269.842ZM267.606 70.956C267.242 69.916 266.93 69.006 266.592 68.148L264.304 68.434C264.642 69.266 264.954 70.072 265.266 70.956H254.788V72.88H276.836V70.956H267.606ZM292.696 72.776L293.554 72.594C292.956 71.138 292.228 69.5 291.63 68.148L289.342 68.59C289.966 69.916 290.694 71.476 291.24 72.776H281.776V74.778H298.026C294.594 78.132 290.122 81.72 285.026 84.892C284.766 84.762 284.532 84.71 284.272 84.71C283.726 84.71 283.18 85.022 282.452 85.776C281.646 86.53 280.632 87.648 279.826 88.532L280.736 90.846C281.62 89.702 282.66 88.454 283.492 87.57C283.934 87.024 284.454 86.998 284.922 87.544C286.716 89.702 288.614 90.404 291.916 90.508C295.14 90.612 298.468 90.612 302.472 90.612C302.628 89.91 302.81 89.234 303.018 88.454C299.508 88.532 295.478 88.584 292.332 88.48C289.576 88.402 288.12 87.934 286.56 86.27C292.228 82.838 297.064 78.912 300.912 74.882V72.776H292.696ZM318.618 76.754H328.446V74.674H318.436C318.566 72.854 318.67 70.228 318.696 68.278H316.486C316.486 70.072 316.434 72.464 316.356 74.674H306.58V76.754H316.226C315.602 82.37 312.976 86.036 306.164 89.598C306.58 90.222 307.152 90.95 307.568 91.522C313.47 88.22 316.278 84.996 317.552 80.264C318.93 85.178 322.024 88.48 327.432 91.262C327.796 90.716 328.342 89.936 328.888 89.208C322.622 86.4 319.632 82.786 318.618 76.754ZM347.868 71.372C348.648 70.462 349.558 69.344 350.182 68.538L348.076 68.044C347.53 68.85 346.36 70.254 345.398 71.372H341.16L341.576 71.242C340.926 70.41 339.678 68.85 338.898 68.018L336.896 68.512C337.65 69.396 338.56 70.566 339.21 71.372H332.996V73.036H342.434V75.298H334.244V76.962H342.434V79.224H332.372V80.888H354.602V79.224H344.514V76.962H352.834V75.298H344.514V73.036H354.03V71.372H347.868ZM344.8 85.1H354.342V83.462H344.384C344.462 82.838 344.54 82.292 344.566 81.72H342.486C342.434 82.37 342.382 82.864 342.304 83.462H332.684V85.1H341.914C340.978 87.388 338.248 88.792 332.06 89.78C332.372 90.378 332.71 91.158 332.944 91.73C339.366 90.378 342.304 88.688 343.526 86.504C345.294 89.208 348.622 90.612 353.952 91.47C354.264 90.742 354.55 90.118 354.836 89.468C349.038 88.766 346.256 87.492 344.8 85.1ZM361.232 92.016L361.596 92.77C363.364 92.224 364.43 90.638 364.43 88.662V86.244H361.544V89H362.87C362.948 90.17 362.428 91.444 361.232 92.016ZM386.478 83.67H388.454V71.268H396.8V83.54H398.776V69.396H386.478V83.67ZM392.978 81.72C393.29 80.394 393.446 78.886 393.524 77.17C393.576 75.974 393.654 74.206 393.654 73.062L391.678 73.036C391.678 74.18 391.626 75.896 391.548 77.456C391.288 83.696 389.806 86.218 383.852 89.988C384.32 90.508 384.84 91.132 385.23 91.6C389.312 88.844 391.418 86.556 392.51 83.436V87.934C392.51 90.014 393.394 90.924 395.266 90.924H396.982C399.01 90.924 399.894 90.196 400.154 88.428C400.31 87.466 400.44 86.426 400.518 85.542C400.05 85.386 398.802 84.944 398.646 84.892C398.568 85.776 398.464 86.894 398.334 87.674C398.178 88.818 397.736 89.156 396.618 89.156H395.734C394.72 89.156 394.382 88.792 394.382 87.622V81.72H392.978ZM382.578 86.036V79.9H385.282V78.08H382.578V71.918H385.542V70.072H377.82V71.918H380.654V78.08H378.028V79.9H380.654V86.374C379.432 86.582 378.262 86.79 377.43 86.92L377.768 89.026C379.952 88.532 384.06 87.752 385.958 87.388C385.906 86.894 385.88 86.062 385.854 85.412C384.97 85.594 383.8 85.802 382.578 86.036ZM16.368 122.09V115.408H22.296V113.536H16.368V108.96H14.288V113.536H8.438V115.408H14.288V122.09H7.346V123.962H23.44V122.09H16.368ZM10.362 105.398C10.778 104.436 11.168 103.422 11.558 102.356L9.348 102.096C8.958 103.24 8.542 104.358 8.074 105.398H1.366V107.27H7.19C5.5 110.468 3.342 113.224 0.404 115.85C0.716 116.526 1.054 117.28 1.314 117.878C2.38 116.916 3.368 115.954 4.252 114.992V125.548H6.254V112.6C7.502 110.936 8.568 109.194 9.504 107.27H23.414V105.398H10.362ZM46.658 113.952V103.682H28.146V105.684H44.552V111.976H30.928V108.752H28.77V120.4C28.77 123.182 30.07 124.456 33.164 124.456H43.98C47.022 124.456 48.244 123.676 48.764 121.232C48.946 120.244 49.128 118.996 49.258 117.8C48.66 117.644 47.984 117.436 47.204 117.176C47.126 118.19 46.944 119.334 46.762 120.218C46.476 121.96 45.748 122.454 43.33 122.454H33.866C31.682 122.454 30.928 121.83 30.928 119.932V113.952H46.658ZM68.862 113.042C70.136 111.768 71.462 110.338 72.476 109.194L70.942 107.946C70.006 109.038 68.68 110.546 67.484 111.69L68.862 113.042ZM58.774 112.938L60.386 111.664C59.268 110.364 58.15 109.168 57.058 107.972L55.576 109.168C56.668 110.39 57.786 111.664 58.774 112.938ZM65.924 115.46H75.154V113.588H65.014V107.244H74.088V105.372H65.014V102.148H62.986V105.372H53.964V107.244H62.986V113.588H52.872V115.46H62.128C59.528 118.398 56.694 120.348 52.404 122.22C52.82 122.87 53.236 123.572 53.6 124.092C57.916 121.934 60.646 119.88 62.986 116.942V125.626H65.014V116.942C67.328 119.932 70.058 121.83 74.348 123.806C74.738 123.182 75.128 122.532 75.544 121.83C71.202 120.166 68.498 118.45 65.924 115.46ZM94.056 125.158C95.07 125.158 96.318 125.158 97.28 125.106C99.49 125.002 100.296 124.144 100.296 121.726V102.356H98.294V121.18C98.294 122.636 97.826 123.104 96.552 123.104C95.85 123.104 94.602 123.078 93.692 123.026C93.848 123.702 93.952 124.378 94.056 125.158ZM93.25 119.516H95.122V104.878H93.25V119.516ZM89.48 112.054C89.74 112.522 90.026 112.99 90.338 113.51L91.95 112.496C90.806 110.78 89.35 108.596 88.102 106.776L86.62 107.634C87.296 108.596 87.868 109.48 88.414 110.364C86.438 110.468 83.552 110.624 81.862 110.676C83.032 109.116 84.28 107.244 85.372 105.424H91.768V103.578H78.898V105.424H83.136C82.096 107.14 80.874 108.96 79.886 110.234C79.678 110.468 79.392 110.676 79.002 110.91L79.652 112.704C80.172 112.574 80.796 112.47 81.42 112.418C83.136 112.262 87.114 112.132 89.48 112.054ZM86.204 121.856V117.826H91.222V116.032H86.204V113.328H84.28V116.032H79.184V117.826H84.28V122.038C82.278 122.22 80.328 122.402 78.534 122.532L78.768 124.612C83.37 124.092 87.504 123.65 91.768 123.26C91.742 122.688 91.742 121.96 91.794 121.336C89.974 121.518 88.102 121.7 86.204 121.856ZM126.218 109.61V103.318H106.952V112.002C106.952 118.398 106.328 120.842 104.378 124.014C104.924 124.56 105.418 125.028 105.938 125.574C108.122 122.298 108.928 119.204 108.928 112.652V109.61H126.218ZM124.294 107.894H108.928V105.034H124.294V107.894ZM122.656 119.516H127.362V117.8H122.656V114.628H126.296V112.938H122.37C123.02 112.054 123.67 111.118 124.19 110.364L122.162 109.844C121.642 110.728 120.836 111.898 120.134 112.938H115.948L116.26 112.86C115.61 111.82 114.882 110.754 114.206 109.818L112.282 110.39C112.88 111.17 113.504 112.106 114.05 112.938H110.306V114.628H113.79V117.488C113.79 117.592 113.79 117.696 113.79 117.8H109.344V119.516H113.66C113.374 121.622 112.412 122.844 109.89 124.404C110.41 124.82 111.086 125.47 111.398 125.73C114.232 123.962 115.35 122.22 115.636 119.516H120.706V125.496H122.656V119.516ZM120.706 117.8H115.74C115.74 117.748 115.74 117.67 115.74 117.618V114.628H120.706V117.8ZM149.878 120.244C150.762 120.608 151.75 120.92 152.842 121.232C153.024 120.712 153.258 120.166 153.518 119.542C150.502 118.944 148.422 118.086 146.732 116.63H153.076V115.148H140.596C140.96 114.654 141.272 114.134 141.558 113.588H150.632V106.958H133.342V113.588H139.478C139.14 114.134 138.776 114.654 138.334 115.148H130.95V116.63H136.8C135.188 117.878 133.108 118.918 130.404 119.776C130.716 120.348 130.976 120.92 131.21 121.44C132.302 121.024 133.316 120.582 134.226 120.14V124.43H136.072V120.426H141.09V125.652H142.988V120.426H148.006V121.778C148.006 122.636 147.564 123 146.706 122.974C146.056 122.974 144.99 122.948 144.496 122.922C144.574 123.416 144.678 123.832 144.782 124.326C145.77 124.326 146.55 124.326 147.382 124.3C149.176 124.248 149.878 123.52 149.878 121.882V120.244ZM148.63 112.34H135.344V110.884H148.63V112.34ZM148.63 109.636H135.344V108.232H148.63V109.636ZM147.382 119.022H142.988V117.384H141.09V119.022H136.28C137.476 118.294 138.49 117.488 139.348 116.63H144.652C145.406 117.566 146.29 118.346 147.382 119.022ZM146.706 105.112H153.128V103.63H146.706V102.122H144.73V103.63H139.244V102.122H137.268V103.63H130.846V105.112H137.268V106.412H139.244V105.112H144.73V106.412H146.706V105.112ZM175.93 124.014V125.574H177.958V108.492H167.636C167.974 107.53 168.416 106.256 168.728 105.346H179.206V103.578H156.716V105.346H166.518C166.206 106.282 165.816 107.556 165.504 108.492H157.964V125.548H159.992V124.014H175.93ZM175.93 122.246H172.368V110.234H175.93V122.246ZM170.392 122.246H165.504V119.23H170.392V122.246ZM170.392 117.644H165.504V114.732H170.392V117.644ZM170.392 113.146H165.504V110.234H170.392V113.146ZM163.554 122.246H159.992V110.234H163.554V122.246ZM197.796 125.236C198.706 125.236 199.798 125.236 200.76 125.21C202.996 125.158 203.828 124.326 203.828 121.908V109.064H201.93V121.44C201.93 122.896 201.436 123.338 200.032 123.338C199.044 123.312 198.212 123.286 197.432 123.26C197.536 123.91 197.666 124.586 197.796 125.236ZM196.99 120.712H198.758V110.182H196.99V120.712ZM198.732 105.45C199.512 104.54 200.318 103.552 200.968 102.694L198.888 102.148C198.264 102.98 197.198 104.332 196.236 105.45H191.53L191.894 105.32C191.036 104.254 189.892 102.902 189.19 102.096L187.214 102.694C187.994 103.604 188.774 104.644 189.45 105.45H182.586V107.244H205.44V105.45H198.732ZM192.18 119.958V122.038C192.18 123.13 191.946 123.442 190.88 123.442C190.282 123.442 189.138 123.416 188.488 123.39C188.592 123.962 188.696 124.664 188.774 125.236H191.582C193.454 125.132 194.13 124.378 194.13 122.402V109.61H184.172V125.522H186.122V119.958H192.18ZM192.18 118.32H186.122V115.616H192.18V118.32ZM192.18 113.978H186.122V111.3H192.18V113.978ZM210.302 122.194C210.302 123.962 211.758 125.34 213.5 125.34C215.242 125.34 216.698 123.988 216.698 122.194C216.698 120.374 215.268 118.944 213.5 118.944C211.706 118.944 210.302 120.4 210.302 122.194ZM211.602 122.194C211.602 121.102 212.408 120.296 213.5 120.296C214.566 120.296 215.372 121.102 215.372 122.194C215.372 123.26 214.566 124.04 213.474 124.04C212.408 124.04 211.602 123.234 211.602 122.194Z" fill="white" fill-opacity="0.6"/>
</svg>
