<svg width="407" height="92" viewBox="0 0 407 92" fill="none" xmlns="http://www.w3.org/2000/svg">
<path d="M81.4 72.2V45.7H45.8V72.2H81.4ZM79.6 70.3H47.6V47.6H79.6V70.3ZM57.8 10H80.1C79.9 14.3 79.7 18.6 79.5 24.5C79.2 31.6 77.5 33.3 70.8 33.3C68.7 33.3 65.2 33.1 62.7 33C62.7 33.7 62.6 34.3 62.6 34.9C65.1 35.1 68.7 35.2 70.8 35.2C78.5 35.2 80.9 32.8 81.3 24.6C81.5 19.3 81.8 13 82 8.1H43.3V10H56C55.8 22.6 52 29.8 41.2 36.3C41.5 36.8 41.7 37.3 42 37.8C53.3 31.3 57.6 23.8 57.8 10ZM24.4 81.7V59.9H38.5V58H24.4V39.1H39.3V37.2H22.4V19.3H38V17.5H22.4V0.999999H20.6V17.5H4.7V19.3H20.6V37.2H1.2V39.1H22.6V80.7C15.7 76 11.8 67.4 10.6 54.6C10.7 52.4 10.8 50.1 10.8 47.7H9C9 63.9 6.5 75.8 2.38419e-07 89.9C0.4 90.1 1.1 90.5 1.6 90.7C6.1 80.9 8.8 72.1 10 62.2C13.3 79.1 22.5 86.7 38.8 86.7H87.7V84.9H38.8C33.1 84.9 28.3 83.9 24.4 81.7ZM106.346 77.9C116.846 76.1 126.446 74.4 137.146 72.6C137.046 72 136.946 71.4 136.846 70.7C125.746 72.7 115.346 74.5 106.046 76.1L106.346 77.9ZM170.546 68.1C178.846 58.6 184.646 47.9 188.246 35.5V33.6H173.046L182.146 10.8V8.9H139.546V10.8H147.246C147.246 12.1 147.246 14.8 147.146 18.3V18.6C147.146 22.2 147.046 26.6 146.946 31.1C146.246 55.9 142.146 70.7 129.146 89.2C129.646 89.6 130.246 89.9 130.746 90.3C143.846 72.2 148.546 55.3 148.946 27.7C152.546 43.5 158.846 56.9 168.146 68C160.846 76 151.646 83 140.346 89.4C140.546 89.8 140.946 90.6 141.246 91.1C152.646 84.6 161.946 77.5 169.346 69.4C175.846 76.8 183.646 83.2 192.846 88.6C193.246 88 193.546 87.5 193.846 87C184.646 81.6 176.946 75.3 170.546 68.1ZM169.346 66.7C158.546 53.9 151.946 38 148.946 18.3C149.046 14.8 149.046 12.1 149.046 10.8H180.146L171.046 33.6V35.5H186.346C182.846 47.3 177.346 57.6 169.346 66.7ZM127.946 31.9C125.746 32 114.246 32.6 110.146 32.9C115.046 26.8 125.246 9.5 128.246 2.6L126.546 1.79999C123.046 9.8 111.846 28.5 107.846 32.6C107.746 32.8 107.246 33 106.146 33.3L106.646 35.1C110.746 34.7 119.846 34.1 126.646 33.9C120.546 42.6 113.146 52.2 110.546 54.6C110.346 54.8 110.046 55 108.846 55.3L109.246 57.1C116.246 56.3 127.146 55.5 135.346 55.1C135.346 54.5 135.246 53.9 135.246 53.2C127.646 53.8 119.746 54.3 113.046 54.8C118.646 48.6 132.646 29.2 136.446 22L134.846 21C133.546 23.5 131.046 27.5 127.946 31.9ZM273.891 1.6C275.691 5.3 277.691 9.3 279.291 12.7L280.891 12C279.191 8.6 277.091 4.2 275.491 0.799995L273.891 1.6ZM262.691 18.7C265.191 22.1 268.691 27 270.791 29.9L272.191 28.7C269.691 25.3 266.591 21.1 264.191 17.7L262.691 18.7ZM257.691 15.1H297.691V13.2H257.691V15.1ZM281.691 32.5C284.891 28.6 289.491 22.5 291.791 18.7L290.291 17.7C287.791 21.7 282.491 28.9 279.491 32.5H254.491V34.4H276.191V46.4H256.391V48.3H276.191V60.6H277.991V48.3H298.191V46.4H277.991V34.4H299.991V32.5H281.691ZM257.291 84.3V70.3H292.491V68.4H257.291V59.8H255.491V68.4H220.291V70.3H255.491V84.3H212.591V86.1H300.191V84.3H257.291ZM251.291 55.7V37.7H226.191V55.7H251.291ZM249.491 53.9H227.991V39.6H249.491V53.9ZM223.491 24.8V10H249.191V24.8H223.491ZM223.491 26.7H250.991V8.1H221.691V24.3C221.691 37.6 219.091 46.9 212.691 56.1C213.191 56.4 213.691 56.8 214.191 57.2C218.191 51.4 220.791 45.5 222.191 38.7C222.291 38.4 222.291 38 222.391 37.7C222.991 34.5 223.391 30.6 223.491 26.7ZM318.837 81.8C327.237 80.6 340.337 78.7 350.337 77.3C350.237 76.6 350.137 76 350.037 75.4C338.537 77 329.437 78.3 318.537 79.9L318.837 81.8ZM382.637 45.5H405.337V43.6H382.537C382.037 34.8 381.737 24.5 381.737 12.7C389.437 11.9 396.837 11 402.437 10.1L402.137 8.2C390.037 10.2 366.637 12.4 354.737 12.8V86.4C354.737 86.9 354.737 87 353.437 88.7L354.837 89.9C356.037 88.4 356.337 88 356.637 87.9C358.037 87.1 376.537 76.3 377.337 75.8C377.037 75.3 376.737 74.7 376.437 74.2C376.237 74.3 360.337 83.6 356.537 85.8V45.5H380.837C382.037 63 384.037 72.5 386.137 78.3C387.937 83.2 390.837 89.3 396.837 89.5C401.537 89.5 403.237 85 404.137 81.5C404.937 78.8 405.937 72.5 406.337 68.1C405.837 68 405.237 68 404.637 67.9C404.137 72.1 403.037 78.4 402.437 81C400.837 86.8 398.737 87.6 396.837 87.6C391.637 87.4 389.537 81.7 387.937 77.6C385.337 70.4 383.637 60 382.637 45.5ZM380.737 43.6H356.537V14.7C362.837 14.4 371.437 13.7 379.937 12.8C379.937 25.1 380.237 35.2 380.737 43.6ZM340.537 33.7C337.937 33.8 326.437 34.5 322.237 34.8C327.137 28.3 337.837 9.1 340.937 1.5L339.137 0.699997C335.737 9.4 324.337 29.9 320.337 34.4C320.137 34.7 319.737 34.9 318.637 35.2L319.037 36.9C323.337 36.4 331.637 36 339.337 35.7C333.137 45.2 325.637 55.9 323.037 58.5C322.837 58.7 322.537 58.9 321.237 59.3L321.737 61.1C327.437 60.3 338.937 59.3 348.037 58.7C348.037 58.2 347.937 57.6 347.937 56.8C340.437 57.4 332.937 58 325.437 58.6C330.937 52.1 345.337 30.6 349.237 22.6L347.637 21.8C346.337 24.5 343.637 28.9 340.537 33.7Z" fill="white"/>
</svg>
